# xmcd CD database file
#
# Track frame offsets:
#	150
#	7696
#	17054
#	26423
#	34736
#	43095
#
# Disc length: 708 seconds
#
# Revision: 0
# Processed by: cddbd v1.5.1PL0 Copyright (c) Steve Scherf et al.
# Submitted via: CDex 1.51
#
DISCID=3702c206
DTITLE=Great Jazz Trio - After The Session -comments- and Eighty-Eight Sampler
DYEAR=2004
DGENRE=Jazz
TTITLE0=After The Session -comments-
TTITLE1=Alone Together
TTITLE2=Left Alone
TTITLE3=So Alive
TTITLE4=The Summer Knows
TTITLE5='S Wonderful
EXTD=YEAR: 2004
EXTT0=
EXTT1=
EXTT2=
EXTT3=
EXTT4=
EXTT5=
PLAYORDER=
